<svg width="420" height="61" viewBox="0 0 420 61" fill="none" xmlns="http://www.w3.org/2000/svg">
<g clip-path="url(#clip0_0_986)">
<path d="M88.1826 51.8038L87.8939 51.6548C87.3665 51.3849 86.9316 50.9631 86.645 50.4435C86.3584 49.9239 86.2331 49.3302 86.2853 48.7386C86.4719 46.6018 86.4934 44.4537 86.3496 42.3136C86.3062 41.7269 86.4362 41.1404 86.7235 40.6275C87.0108 40.1147 87.4426 39.6983 87.9648 39.4305L88.3739 39.2219C88.9551 38.9262 89.4236 38.4476 89.7079 37.8594C89.9921 37.2711 90.0764 36.6056 89.9479 35.9648C89.7642 35.0512 89.5503 34.1376 89.3061 33.224C89.1263 32.5404 88.9266 31.8635 88.7188 31.1949C88.5183 30.5649 88.1154 30.0193 87.573 29.6435C87.0306 29.2677 86.3793 29.0828 85.7211 29.1178L85.3647 29.136C84.7735 29.1698 84.1857 29.0256 83.6769 28.7219C83.168 28.4181 82.7612 27.9686 82.5089 27.4312C81.5957 25.4746 80.5304 23.5931 79.3231 21.804C78.9988 21.3176 78.8245 20.7462 78.8218 20.1611C78.8192 19.576 78.9884 19.003 79.3083 18.5137L79.5409 18.1562C79.8984 17.6047 80.065 16.9504 80.0149 16.2944C79.9648 15.6384 79.7008 15.0172 79.2637 14.5267C78.176 13.3028 77.0234 12.1388 75.8107 11.0394C75.3228 10.5957 74.7023 10.3262 74.0459 10.2729C73.3894 10.2196 72.7338 10.3856 72.1811 10.7448L71.8677 10.9484C71.3764 11.2719 70.8002 11.4413 70.2126 11.4351C69.625 11.4289 69.0525 11.2474 68.5681 10.9137C66.8059 9.69203 64.952 8.60914 63.0231 7.67469C62.5002 7.41564 62.0648 7.00784 61.7714 6.50218C61.4781 5.99652 61.3396 5.41539 61.3733 4.83129L61.3931 4.41752C61.4285 3.7602 61.2467 3.10954 60.8759 2.56642C60.5051 2.0233 59.9661 1.61807 59.3424 1.41357C57.7791 0.894206 56.1892 0.459401 54.5794 0.111033C53.9355 -0.0294353 53.2633 0.048205 52.6681 0.331805C52.0728 0.615405 51.5881 1.08896 51.2897 1.67838L51.1099 2.02595C50.8447 2.5507 50.4305 2.98493 49.9196 3.27388C49.4088 3.56282 48.8241 3.69355 48.2392 3.64957C46.1412 3.48541 44.0338 3.48265 41.9353 3.64129C41.3516 3.68281 40.7686 3.55038 40.2597 3.26063C39.7507 2.97089 39.3384 2.53674 39.0746 2.01271L38.8848 1.63866C38.5885 1.05139 38.1072 0.578736 37.5156 0.294114C36.924 0.00949175 36.2553 -0.0711591 35.6133 0.0646909C34.8588 0.223577 34.1032 0.402876 33.3465 0.602588L33.1815 0.647275C32.3709 0.867951 31.5724 1.10463 30.786 1.3573C30.1612 1.56106 29.6208 1.96583 29.2486 2.50891C28.8763 3.05199 28.693 3.70306 28.727 4.36125L28.7485 4.77667C28.7803 5.36374 28.6383 5.94715 28.3404 6.45342C28.0424 6.95969 27.6017 7.36619 27.0739 7.62173C25.2172 8.51219 23.4303 9.54238 21.7286 10.7035C21.2434 11.0319 20.6722 11.2091 20.0869 11.213C19.5016 11.2168 18.9283 11.047 18.4388 10.725L18.0924 10.5015C17.541 10.1404 16.8861 9.9724 16.2296 10.0236C15.5731 10.0748 14.952 10.3423 14.4628 10.7846C13.2066 11.9148 12.0137 13.1138 10.8894 14.3761C10.4525 14.8665 10.1883 15.4873 10.1373 16.1431C10.0864 16.7988 10.2515 17.4532 10.6072 18.0056L10.8316 18.3515C11.1538 18.8442 11.323 19.4217 11.3181 20.0109C11.3131 20.6001 11.134 21.1746 10.8036 21.6617C9.667 23.3262 8.65351 25.072 7.77123 26.8851C7.5131 27.4094 7.10686 27.8459 6.60314 28.1402C6.09942 28.4345 5.52049 28.5736 4.93852 28.5401L4.50627 28.517C3.85201 28.483 3.20475 28.6657 2.66404 29.0368C2.12333 29.4079 1.7191 29.9469 1.51353 30.5709C0.974133 32.1955 0.524158 33.8487 0.165641 35.5229C0.0258467 36.1702 0.10325 36.8458 0.385809 37.4444C0.668368 38.0431 1.14024 38.5312 1.728 38.833L2.07941 39.0118C2.60274 39.2783 3.03561 39.6944 3.32337 40.2075C3.61113 40.7206 3.74088 41.3078 3.69622 41.8949C3.5441 43.8816 3.53473 45.8767 3.66817 47.8647C3.7056 48.4477 3.57135 49.0288 3.28212 49.5359C2.99289 50.0429 2.56145 50.4534 2.04147 50.7164L1.63726 50.9233C1.05767 51.2184 0.589891 51.6952 0.304941 52.2812C0.0199907 52.8673 -0.0665684 53.5306 0.0584042 54.1705C0.246482 55.0974 0.463156 56.022 0.708426 56.9444C0.909702 57.6991 1.12968 58.445 1.36835 59.1821C1.6034 59.9237 2.11945 60.543 2.80532 60.9066H10.6254C9.73594 58.9576 9.01187 56.9368 8.46084 54.8656C3.08579 34.6573 15.0996 13.82 35.2437 8.42775L35.3807 8.39299C55.4835 3.09678 76.1671 15.1374 81.5322 35.2978C83.8149 43.8267 83.0448 52.8884 79.3561 60.9066H87.7965C88.068 60.6076 88.2747 60.2554 88.4036 59.8722C88.9333 58.3134 89.3794 56.7272 89.74 55.1205C89.8841 54.4727 89.8093 53.7952 89.5273 53.1947C89.2453 52.5942 88.7723 52.1048 88.1826 51.8038Z" fill="#EB5757"/>
<path d="M27.1058 60.9231C25.1284 60.9233 23.179 60.4548 21.4163 59.5558C19.6536 58.6568 18.1277 57.3528 16.9627 55.7499C15.7977 54.147 15.0267 52.2907 14.7125 50.3322C14.3982 48.3737 14.5497 46.3685 15.1546 44.4799C15.7594 42.5913 16.8005 40.8727 18.1929 39.4643C19.5854 38.0559 21.2899 36.9974 23.1674 36.3752C25.045 35.7529 27.0426 35.5845 28.9974 35.8836C30.9521 36.1827 32.8088 36.9409 34.4161 38.0964C34.6679 38.2777 34.8376 38.5519 34.8879 38.8588C34.9381 39.1656 34.8649 39.4799 34.6842 39.7325C34.5034 39.9851 34.2301 40.1553 33.9243 40.2058C33.6184 40.2562 33.3051 40.1827 33.0533 40.0014C31.077 38.5846 28.6615 37.9221 26.2415 38.1331C23.8216 38.3441 21.5562 39.4148 19.8532 41.1523C18.1501 42.8899 17.1213 45.1803 16.9519 47.6112C16.7825 50.0421 17.4836 52.4538 18.9291 54.4122C20.3745 56.3706 22.4694 57.7471 24.8365 58.2938C27.2037 58.8406 29.6876 58.5217 31.8412 57.3945C33.9948 56.2674 35.6766 54.4061 36.5839 52.1456C37.4912 49.8851 37.5643 47.374 36.7901 45.0643C36.6936 44.7699 36.717 44.4492 36.8553 44.1721C36.9936 43.8949 37.2355 43.684 37.5283 43.5852C37.8211 43.4864 38.141 43.5078 38.4181 43.6448C38.6952 43.7817 38.9071 44.0231 39.0075 44.3162C39.6404 46.2104 39.8154 48.2285 39.5179 50.2039C39.2204 52.1794 38.459 54.0555 37.2965 55.6776C36.1339 57.2998 34.6036 58.6214 32.8318 59.5334C31.0599 60.4454 29.0973 60.9218 27.1058 60.9231Z" fill="#EB5757"/>
<path d="M61.8096 60.9232C59.6894 60.9221 57.5986 60.4247 55.7037 59.4703C53.8087 58.516 52.162 57.1312 50.8945 55.426C49.627 53.7209 48.7737 51.7425 48.4025 49.6483C48.0313 47.5541 48.1525 45.4018 48.7564 43.3629C48.8541 43.0769 49.058 42.8397 49.3257 42.7008C49.5934 42.5619 49.9042 42.532 50.1933 42.6174C50.4824 42.7028 50.7275 42.8968 50.8775 43.159C51.0275 43.4212 51.0709 43.7314 50.9985 44.0249C50.2202 46.6248 50.3993 49.4187 51.5032 51.8971C52.6071 54.3755 54.5622 56.3734 57.012 57.5262C59.4618 58.6791 62.2431 58.9102 64.8486 58.1773C67.454 57.4445 69.7102 55.7966 71.2055 53.5341C72.7008 51.2717 73.3357 48.5454 72.9943 45.8525C72.653 43.1596 71.3581 40.6795 69.3459 38.8645C67.3338 37.0495 64.7383 36.0205 62.0329 35.9652C59.3275 35.9099 56.6925 36.8319 54.6083 38.5632C54.3672 38.7349 54.0703 38.8088 53.7773 38.7698C53.4842 38.7309 53.2167 38.582 53.0286 38.3532C52.8404 38.1245 52.7456 37.8327 52.7632 37.5367C52.7808 37.2406 52.9095 36.9622 53.1234 36.7575C54.8054 35.3566 56.7988 34.3827 58.9352 33.918C61.0717 33.4533 63.2882 33.5116 65.3974 34.0879C67.5066 34.6642 69.4465 35.7415 71.053 37.2289C72.6595 38.7162 73.8853 40.5697 74.6269 42.6327C75.3684 44.6957 75.6038 46.9075 75.3132 49.0811C75.0226 51.2546 74.2146 53.3261 72.9573 55.1201C71.7001 56.9142 70.0307 58.3782 68.0904 59.3882C66.15 60.3983 63.9957 60.9248 61.8096 60.9232Z" fill="#EB5757"/>
<path d="M29.3661 48.6045C29.1274 48.6045 28.8944 48.5313 28.6983 48.3946C28.5023 48.2579 28.3527 48.0643 28.2695 47.8398C28.1864 47.6153 28.1737 47.3707 28.2332 47.1387C28.2926 46.9068 28.4214 46.6986 28.6022 46.5423L40.009 36.683L35.2773 35.1554C35.1261 35.1125 34.9851 35.0395 34.8626 34.9408C34.7402 34.842 34.6388 34.7195 34.5646 34.5806C34.4904 34.4416 34.4448 34.2891 34.4306 34.1321C34.4164 33.9751 34.4339 33.8169 34.4821 33.6668C34.5302 33.5168 34.6079 33.378 34.7107 33.2588C34.8135 33.1395 34.9391 33.0423 35.0802 32.9728C35.2212 32.9034 35.3748 32.8631 35.5317 32.8545C35.6886 32.8459 35.8456 32.8691 35.9934 32.9227L44.6911 35.7363L30.1267 48.3281C29.9141 48.5083 29.6444 48.6063 29.3661 48.6045Z" fill="#EB5757"/>
<path d="M59.7222 44.0894C59.6065 44.0893 59.4914 44.072 59.3807 44.0381L43.9006 39.3046L52.958 30.8191C53.1867 30.6192 53.4838 30.5162 53.7868 30.5318C54.0897 30.5475 54.3747 30.6806 54.5817 30.903C54.7886 31.1255 54.9014 31.4199 54.8961 31.7241C54.8908 32.0284 54.768 32.3186 54.5534 32.5337L48.4491 38.2454L60.0538 41.7938C60.321 41.8758 60.5501 42.0509 60.6998 42.2876C60.8494 42.5243 60.9096 42.8069 60.8695 43.0843C60.8294 43.3617 60.6917 43.6155 60.4813 43.7999C60.2709 43.9842 60.0016 44.0869 59.7222 44.0894Z" fill="#EB5757"/>
<path d="M28.5988 34.0333C28.3354 34.0331 28.0797 33.9438 27.8732 33.7798C27.6667 33.6157 27.5215 33.3866 27.461 33.1294C27.4005 32.8722 27.4282 32.6021 27.5398 32.3627C27.6514 32.1234 27.8403 31.9288 28.0758 31.8105C32.1888 29.7566 42.2278 26.4183 49.6206 25.753C49.7734 25.7396 49.9274 25.7566 50.0737 25.8029C50.22 25.8492 50.3558 25.924 50.4733 26.023C50.5908 26.122 50.6877 26.2432 50.7585 26.3797C50.8293 26.5163 50.8726 26.6655 50.886 26.8188C50.8993 26.9722 50.8824 27.1266 50.8362 27.2734C50.79 27.4202 50.7155 27.5564 50.6168 27.6743C50.5181 27.7922 50.3973 27.8894 50.2612 27.9604C50.1251 28.0315 49.9763 28.0749 49.8235 28.0883C42.7128 28.7288 33.0632 31.938 29.1119 33.9108C28.9526 33.9908 28.7769 34.0327 28.5988 34.0333Z" fill="#EB5757"/>
<path d="M23.2506 31.4811C22.9863 31.4806 22.7301 31.3903 22.5235 31.2251C22.3169 31.0598 22.1722 30.8293 22.1128 30.571C22.0535 30.3127 22.0832 30.0418 22.1969 29.8026C22.3106 29.5633 22.5017 29.3697 22.7391 29.2533C31.6728 24.8972 42.0583 23.1941 49.197 22.5338C49.3499 22.5196 49.504 22.5358 49.6506 22.5815C49.7972 22.6271 49.9334 22.7012 50.0514 22.7997C50.1695 22.8981 50.267 23.0189 50.3385 23.1552C50.41 23.2914 50.4541 23.4405 50.4682 23.5938C50.4823 23.7472 50.4661 23.9018 50.4206 24.0489C50.3751 24.1959 50.3012 24.3326 50.2031 24.451C50.105 24.5694 49.9846 24.6673 49.8487 24.739C49.7129 24.8107 49.5643 24.8549 49.4115 24.8691C42.4675 25.5129 32.3789 27.1613 23.7571 31.3635C23.5991 31.4402 23.426 31.4803 23.2506 31.4811Z" fill="#EB5757"/>
<path d="M61.215 20.8771C60.7347 20.2985 60.1262 19.8406 59.4382 19.5398C58.0837 18.9721 56.7572 18.464 52.6426 18.3266C51.2124 18.2883 49.7815 18.3691 48.3647 18.5683C48.0765 18.6287 47.8216 18.7961 47.6512 19.0369C47.4807 19.2778 47.4072 19.5743 47.4454 19.8672C47.4836 20.16 47.6306 20.4277 47.857 20.6165C48.0834 20.8053 48.3726 20.9013 48.6666 20.8854C50.3966 20.632 52.1505 20.5853 53.8915 20.7463C53.2936 21.4178 52.8936 22.2428 52.736 23.1292C52.5785 24.0156 52.6698 24.9285 52.9996 25.7659C53.3294 26.6032 53.8848 27.3321 54.6037 27.8711C55.3226 28.4101 56.1768 28.738 57.0707 28.8181C57.2175 28.8313 57.3644 28.838 57.5095 28.838C58.7169 28.8354 59.8797 28.3805 60.77 27.5623C61.6603 26.7442 62.2138 25.622 62.322 24.4156C62.3797 23.7817 62.3115 23.1426 62.1215 22.5352C61.9315 21.9279 61.6234 21.3643 61.215 20.8771ZM59.9925 24.2137C59.9493 24.6984 59.7666 25.16 59.4665 25.5423C59.1665 25.9246 58.7622 26.2112 58.3027 26.3671C57.8432 26.523 57.3485 26.5415 56.8787 26.4204C56.409 26.2992 55.9844 26.0437 55.6568 25.6849C55.3293 25.326 55.1128 24.8794 55.0337 24.3993C54.9546 23.9192 55.0164 23.4264 55.2115 22.981C55.4066 22.5355 55.7267 22.1565 56.1326 21.8902C56.5386 21.624 57.013 21.4818 57.498 21.4812C57.5722 21.4812 57.6481 21.4812 57.724 21.4911C58.3844 21.5512 58.994 21.8716 59.4193 22.382C59.8446 22.8923 60.0507 23.5511 59.9925 24.2137Z" fill="#EB5757"/>
</g>
<path d="M110 0.450073H125.636C131.885 0.450073 136.8 4.93097 136.8 11.8742C136.8 17.6988 133.448 21.061 129.43 22.4046L137.248 31.8164H126.079L119.382 22.8546V31.8164H110V0.450073ZM124.957 14.5616C125.624 14.4979 126.243 14.1872 126.693 13.6903C127.144 13.1934 127.393 12.5459 127.393 11.8742C127.393 11.2026 127.144 10.5551 126.693 10.0582C126.243 9.56124 125.624 9.2506 124.957 9.18692H119.382V14.5616H124.957Z" fill="#EB5757"/>
<path d="M140.599 16.13C140.599 6.72438 147.266 0 156.005 0C164.744 0 171.417 6.72438 171.417 16.13C171.417 25.5356 164.714 32.26 156.005 32.26C147.296 32.26 140.599 25.5417 140.599 16.13ZM162.035 16.13C162.035 11.8741 159.357 9.18675 155.975 9.18675C152.593 9.18675 149.914 11.8741 149.914 16.13C149.914 20.3859 152.593 23.0793 155.975 23.0793C159.357 23.0793 162.035 20.3859 162.035 16.13Z" fill="#EB5757"/>
<path d="M176.102 18.3737V0.450073H185.483V18.3737C185.483 21.2859 187.271 23.0795 189.726 23.0795C192.18 23.0795 193.968 21.2859 193.968 18.3737V0.450073H203.344V18.3737C203.344 26.8855 197.986 32.2602 189.72 32.2602C181.453 32.2602 176.102 26.8855 176.102 18.3737Z" fill="#EB5757"/>
<path d="M209.156 0.450073H219.653L226.58 14.1177H227.471V0.450073H236.853V31.8164H226.356L219.435 18.167H218.538V31.8346H209.156V0.450073Z" fill="#EB5757"/>
<path d="M242.883 0.450073H254.938C263.877 0.450073 270.574 7.16838 270.574 16.1302C270.574 25.092 263.907 31.8164 254.938 31.8164H242.883V0.450073ZM255.162 22.6296C258.513 22.6296 261.222 19.9423 261.222 16.1302C261.222 12.3181 258.544 9.63683 255.162 9.63683H252.259V22.6296H255.162Z" fill="#EB5757"/>
<path d="M289.557 0.450073H305.193C311.442 0.450073 316.357 4.93097 316.357 11.8742C316.357 17.6988 313.005 21.061 308.987 22.4046L316.805 31.8164H305.636L298.939 22.8546V31.8164H289.557V0.450073ZM304.521 14.5616C305.187 14.4979 305.806 14.1872 306.256 13.6903C306.707 13.1934 306.956 12.5459 306.956 11.8742C306.956 11.2026 306.707 10.5551 306.256 10.0582C305.806 9.56124 305.187 9.2506 304.521 9.18692H298.939V14.5616H304.521Z" fill="#EB5757"/>
<path d="M320.156 16.13C320.156 6.72438 326.853 0 335.562 0C344.271 0 350.974 6.72438 350.974 16.13C350.974 25.5356 344.271 32.26 335.562 32.26C326.853 32.26 320.156 25.5417 320.156 16.13ZM341.592 16.13C341.592 11.8741 338.914 9.18675 335.562 9.18675C332.211 9.18675 329.532 11.8741 329.532 16.13C329.532 20.3859 332.211 23.0793 335.562 23.0793C338.914 23.0793 341.592 20.3859 341.592 16.13Z" fill="#EB5757"/>
<path d="M354.769 16.13C354.769 6.72438 361.472 0 370.181 0C378.223 0 383.805 5.5996 384.92 13.2177H375.539C375.235 12.0352 374.539 10.9917 373.565 10.259C372.591 9.52631 371.398 9.14814 370.181 9.18676C366.83 9.18676 364.151 11.8741 364.151 16.13C364.151 20.386 366.83 23.0793 370.181 23.0793C373.084 23.0793 374.872 21.2858 375.539 18.8234H384.92C383.805 26.6665 378.223 32.2661 370.181 32.2661C361.472 32.26 354.769 25.5417 354.769 16.13Z" fill="#EB5757"/>
<path d="M389.834 0.450073H399.21V13.2179L405.913 0.450073H416.634L408.15 15.9052L417.531 31.8164H406.804L399.21 18.3737V31.8164H389.834V0.450073Z" fill="#EB5757"/>
<path d="M110 46.0022H115.873C116.392 45.9844 116.91 46.074 117.394 46.2654C117.878 46.4568 118.317 46.7459 118.685 47.1148C119.053 47.4836 119.341 47.9244 119.532 48.4097C119.722 48.8951 119.812 49.4145 119.794 49.9359C119.826 50.5803 119.68 51.2211 119.37 51.7868C119.061 52.3526 118.601 52.821 118.042 53.14V53.2434C118.665 53.5304 119.185 54.0005 119.535 54.5912C119.884 55.182 120.047 55.8654 120 56.5509C120.018 57.072 119.928 57.5912 119.738 58.0762C119.547 58.5612 119.258 59.0016 118.891 59.37C118.523 59.7384 118.083 60.027 117.6 60.2177C117.116 60.4084 116.598 60.4971 116.079 60.4785H110.018L110 46.0022ZM115.873 52.6232C116.236 52.6406 116.598 52.5838 116.939 52.4564C117.279 52.329 117.59 52.1336 117.853 51.8821C118.116 51.6306 118.325 51.3281 118.468 50.9931C118.611 50.658 118.685 50.2973 118.685 49.9329C118.685 49.5684 118.611 49.2077 118.468 48.8727C118.325 48.5376 118.116 48.2352 117.853 47.9837C117.59 47.7321 117.279 47.5368 116.939 47.4094C116.598 47.282 116.236 47.2252 115.873 47.2425H111.236V52.6232H115.873ZM116.079 59.2382C116.434 59.25 116.788 59.1886 117.119 59.0578C117.449 58.927 117.75 58.7296 118.001 58.4777C118.253 58.2259 118.45 57.925 118.581 57.5935C118.713 57.2621 118.775 56.9073 118.764 56.5509C118.792 56.1902 118.742 55.8276 118.617 55.4882C118.492 55.1489 118.295 54.8408 118.04 54.5852C117.784 54.3297 117.477 54.1328 117.138 54.0082C116.8 53.8836 116.438 53.8342 116.079 53.8635H111.23V59.2382H116.079Z" fill="#EB5757"/>
<path d="M135.008 46H136.22V60.4763H135.008V46Z" fill="#EB5757"/>
<path d="M151.22 53.4479C151.22 48.9974 154.208 46 158.02 46C159.452 46.0107 160.841 46.4923 161.974 47.3709C163.107 48.2494 163.921 49.4765 164.292 50.8639H162.953C162.619 49.8091 161.961 48.8877 161.072 48.2321C160.184 47.5766 159.111 47.2208 158.008 47.216C154.917 47.216 152.444 49.6966 152.444 53.4236C152.444 57.1506 154.917 59.6251 158.008 59.6251C159.121 59.6212 160.204 59.257 161.095 58.5867C161.986 57.9164 162.637 56.9756 162.953 55.9042H164.292C163.931 57.3077 163.121 58.5534 161.985 59.4497C160.85 60.3461 159.452 60.8435 158.008 60.8654C154.208 60.8897 151.22 57.8923 151.22 53.4479Z" fill="#EB5757"/>
<path d="M184.65 55.0408L179.292 46H180.674L185.08 53.4479H185.492L189.886 46H191.268L185.905 55.0408V60.4763H184.692L184.65 55.0408Z" fill="#EB5757"/>
<path d="M206.268 53.4479C206.268 48.9974 209.256 46 213.068 46C214.503 46.0068 215.896 46.4865 217.033 47.3653C218.17 48.2442 218.987 49.4735 219.359 50.8639H218.02C217.685 49.8087 217.025 48.887 216.136 48.2315C215.246 47.576 214.172 47.2205 213.068 47.216C209.977 47.216 207.504 49.6966 207.504 53.4236C207.504 57.1506 209.977 59.6251 213.068 59.6251C214.183 59.6225 215.267 59.2589 216.159 58.5885C217.051 57.9181 217.704 56.9766 218.02 55.9042H219.359C218.997 57.3082 218.185 58.554 217.048 59.4503C215.912 60.3466 214.513 60.8438 213.068 60.8654C209.256 60.8897 206.268 57.8923 206.268 53.4479Z" fill="#EB5757"/>
<path d="M234.359 46H235.571V59.2359H242.995V60.4519H234.359V46Z" fill="#EB5757"/>
<path d="M258.013 46H267.104V47.216H259.25V52.5967H266.674V53.8127H259.25V59.1873H267.086V60.4033H257.995L258.013 46Z" fill="#EB5757"/>
<path d="M290 46H295.976C298.448 46 300.218 47.7571 300.218 50.3471C300.218 53.0344 298.364 54.7915 295.976 54.7915H294.533L300.509 60.4763H298.861L292.885 54.7915H291.236V60.4763H290.024L290 46ZM295.976 53.5513C297.727 53.5513 298.964 52.3353 298.964 50.3471C298.992 49.9411 298.935 49.5337 298.796 49.1513C298.657 48.7689 298.44 48.4199 298.159 48.127C297.877 47.8341 297.537 47.6039 297.161 47.4511C296.785 47.2984 296.381 47.2265 295.976 47.2403H291.236V53.5513H295.976Z" fill="#EB5757"/>
<path d="M315.527 46H324.618V47.216H316.764V52.5967H324.188V53.8127H316.764V59.1873H324.6V60.4033H315.509L315.527 46Z" fill="#EB5757"/>
<path d="M339.618 46H345.594C346.168 45.9994 346.736 46.1156 347.263 46.3415C347.791 46.5675 348.268 46.8985 348.664 47.3145C349.061 47.7306 349.369 48.223 349.571 48.762C349.772 49.301 349.863 49.8755 349.836 50.4505C349.871 51.0223 349.785 51.595 349.585 52.1316C349.385 52.6682 349.075 53.1568 348.676 53.5658C348.276 53.9749 347.795 54.2953 347.264 54.5065C346.734 54.7176 346.164 54.8147 345.594 54.7916H340.855V60.4763H339.642L339.618 46ZM345.594 53.5513C345.999 53.5658 346.403 53.4948 346.78 53.3428C347.156 53.1908 347.496 52.9612 347.778 52.6689C348.061 52.3766 348.278 52.0281 348.418 51.646C348.557 51.2638 348.615 50.8565 348.588 50.4505C348.588 48.4806 347.345 47.2403 345.594 47.2403H340.855V53.5513H345.594Z" fill="#EB5757"/>
<path d="M370.28 46H372.135L377.589 60.4763H376.377L374.892 56.5486H367.541L366.056 60.4763H364.844L370.28 46ZM374.407 55.3083L371.413 47.3437H371.001L368.013 55.3083H374.407Z" fill="#EB5757"/>
<path d="M392.589 46H393.801V60.4763H392.589V46Z" fill="#EB5757"/>
<path d="M408.801 46H414.777C417.25 46 419.019 47.7571 419.019 50.3471C419.019 53.0344 417.165 54.7915 414.777 54.7915H413.335L419.31 60.4763H417.686L411.71 54.7915H410.062V60.4763H408.85L408.801 46ZM414.777 53.5513C416.529 53.5513 417.765 52.3353 417.765 50.3471C417.793 49.9411 417.736 49.5337 417.597 49.1513C417.459 48.7689 417.241 48.4199 416.96 48.127C416.678 47.8341 416.338 47.6039 415.962 47.4511C415.586 47.2984 415.182 47.2265 414.777 47.2403H410.038V53.5513H414.777Z" fill="#EB5757"/>
<defs>
<clipPath id="clip0_0_986">
<rect width="90" height="61" fill="white"/>
</clipPath>
</defs>
</svg>
